<svg xmlns="http://www.w3.org/2000/svg" xmlns:xlink="http://www.w3.org/1999/xlink" width="500" zoomAndPan="magnify" viewBox="0 0 375 374.999991" height="500" preserveAspectRatio="xMidYMid meet" version="1.0"><defs><clipPath id="0773715c76"><path d="M 24 23.179688 L 351.675781 23.179688 L 351.675781 351 L 24 351 Z M 24 23.179688 " clip-rule="nonzero"/></clipPath></defs><g clip-path="url(#0773715c76)"><path fill="#2d8cff" d="M 188.246094 23.785156 C 97.988281 23.785156 24.8125 90.847656 24.8125 173.601562 C 24.8125 206.066406 36.195312 236.03125 55.367188 260.585938 L 25.851562 331.820312 C 22.976562 338.777344 26.273438 346.730469 33.21875 349.613281 C 36.707031 351.050781 40.429688 350.957031 43.648438 349.613281 L 130.554688 313.621094 C 148.503906 319.847656 167.898438 323.417969 188.246094 323.417969 C 278.527344 323.417969 351.675781 256.316406 351.675781 173.601562 C 351.675781 90.847656 278.527344 23.785156 188.246094 23.785156 Z M 120.148438 194.03125 C 108.851562 194.03125 99.71875 184.882812 99.71875 173.601562 C 99.71875 162.296875 108.851562 153.171875 120.148438 153.171875 C 131.425781 153.171875 140.574219 162.296875 140.574219 173.601562 C 140.574219 184.882812 131.425781 194.03125 120.148438 194.03125 Z M 188.246094 194.03125 C 176.953125 194.03125 167.816406 184.882812 167.816406 173.601562 C 167.816406 162.296875 176.953125 153.171875 188.246094 153.171875 C 199.527344 153.171875 208.675781 162.296875 208.675781 173.601562 C 208.675781 184.882812 199.527344 194.03125 188.246094 194.03125 Z M 256.34375 194.03125 C 245.050781 194.03125 235.914062 184.882812 235.914062 173.601562 C 235.914062 162.296875 245.050781 153.171875 256.34375 153.171875 C 267.621094 153.171875 276.773438 162.296875 276.773438 173.601562 C 276.773438 184.882812 267.621094 194.03125 256.34375 194.03125 Z M 256.34375 194.03125 " fill-opacity="1" fill-rule="nonzero"/></g></svg>