<svg id="Layer_1" data-name="Layer 1" xmlns="http://www.w3.org/2000/svg" xmlns:xlink="http://www.w3.org/1999/xlink" width="798" height="795" viewBox="0 0 798 795"><defs><style>.cls-1{fill:#fff;}.cls-2{mask:url(#mask);}.cls-3{fill:#ffc929;}.cls-4{mask:url(#mask-2);}.cls-5{mask:url(#mask-3);}.cls-6{fill:#353535;}.cls-7{fill:#ef502e;}.cls-8{fill:#cc2525;}.cls-9{fill:none;}</style><mask id="mask" x="80.28" y="54.05" width="620.51" height="620.5" maskUnits="userSpaceOnUse"><g transform="translate(-1 -2.5)"><g id="b"><polygon id="a" class="cls-1" points="81.29 56.55 701.79 56.55 701.79 677.05 81.29 677.05 81.29 56.55"/></g></g></mask><mask id="mask-2" x="80.29" y="763.2" width="5.59" height="5.59" maskUnits="userSpaceOnUse"><g transform="translate(-1 -2.5)"><g id="d"><polygon id="c" class="cls-1" points="81.29 765.7 86.88 765.7 86.88 771.29 81.29 771.29 81.29 765.7"/></g></g></mask><mask id="mask-3" x="320.18" y="598.68" width="106.39" height="170.11" maskUnits="userSpaceOnUse"><g transform="translate(-1 -2.5)"><g id="f"><polygon id="e" class="cls-1" points="321.18 601.18 427.57 601.18 427.57 771.29 321.18 771.29 321.18 601.18"/></g></g></mask></defs><title>cambly-logo-freelogovectors.net_</title><g class="cls-2"><path class="cls-3" d="M701.79,366.79C701.79,538.14,562.88,677,391.54,677S81.28,538.14,81.28,366.79,220.19,56.55,391.54,56.55,701.79,195.44,701.79,366.79" transform="translate(-1 -2.5)"/></g><g class="cls-4"><path class="cls-1" d="M70.11,760.11" transform="translate(-1 -2.5)"/></g><g class="cls-5"><path class="cls-6" d="M427.56,664.26v58.15c0,5.74-1.23,10.68-4.23,15.1-6.08,9.07-12,18.25-17.9,27.52a15.94,15.94,0,0,1-4.24,4.49,9.19,9.19,0,0,1-5.55,1.77h-.36c-23.83-.79-46.14-1.42-69.95-2.47-1.5,0-4.15-.52-4.15-3.44,0-2.47,3.62-3.7,5.82-4.68,0,0,51.58-22.46,77.68-33.48,2.56-1.06,4.15-2.2,5.12-3.89s1.59-4.05,1.59-7.4c0-.27.09-88.51.09-111.88,5.2-.62,10.87-1.8,15.91-2.87.08,14.12.17,39.43.17,63.08" transform="translate(-1 -2.5)"/></g><path class="cls-6" d="M576.73,732.91V733c0,.53-.32,2.39-1.83,2.39-.61,0-79.41.34-116.9.43a37.19,37.19,0,0,1-5.91-.53,5,5,0,0,1-3.53-2.63,8.61,8.61,0,0,1-1-3.19,43.5,43.5,0,0,1-.25-6.17c0-.53.25-94.87.34-127.33,4.87-1.49,10.69-3.89,15.36-5.83.09,29.65,0,112.24,0,112.24a6.89,6.89,0,0,0,.35,2.2,2.13,2.13,0,0,0,.63,1,5.16,5.16,0,0,0,2.63.79c26.65,5,95.37,18.88,103.65,20.47a12.61,12.61,0,0,1,2.74.79,7.3,7.3,0,0,1,2.47,1.95,6.25,6.25,0,0,1,1.23,3.35" transform="translate(-1 -2.5)"/><path class="cls-7" d="M548.1,546c-20.44,24.26-48.62,43.51-81,56.13-5.31,2.21-10.83,4.11-16.35,5.81-7.51,2.3-15.22,4.32-23.05,5.92-5.71,1.2-11.52,2.21-17.44,2.9a253.75,253.75,0,0,1-170.5-36.49c-2.31-1.29-4.31-2.7-6.21-4,41,26.46,93.51,33.28,150.15,16.84,66.06-19.36,112.67-54.93,132.92-115.48,23.65-70.26-10.43-121.89-56.24-147.14-37.3-20.35-98.74-16.45-136.61,29.67-4.13-46.71-37.3-110.26-33-158.28,6.43-73.67,83-109.06,148-96.42a90.14,90.14,0,0,1,36.11,15.8c.4.51-.09.64,0,1.14-15.95,13.14-28.61,25.06-32.73,35.68-5,13.33,6.52,21.65,8.93,44.7,1.9,18.25-1,24.26-2.71,30.67-1.4,5.32,24.06,20,51,15.35,10.82-1.91,27.06-6.32,39.49-20.06,7.71,21.46,13.64,41.5,18.84,55.83C592.91,382.93,611.25,471,548.1,546" transform="translate(-1 -2.5)"/><path class="cls-1" d="M425.66,225.52a1.47,1.47,0,0,1-1.73.82A70.49,70.49,0,0,0,393,225.11c-10.5,1.89-22.32,7.7-30.3,14.15a1.07,1.07,0,0,1-1.53-.37c-4.82-7.45-7.5-16.86-8.56-26.95-2.65-25.13,14.31-43.87,34.53-45.37,19-1.41,36.48,10.63,40.08,37,.71,5.2.78,17.27-1.58,21.91" transform="translate(-1 -2.5)"/><path class="cls-6" d="M374,217.15c8.88-8.25,23-11.93,36.74-8.11a30.48,30.48,0,0,0-2-8.94c-2.75-7.13-9.92-13.77-21.68-11.17-12.93,2.85-17.51,18.3-13.08,28.22m349.68-99.63L556.05,204.44c-1.86.77-3.85,1.87-4.5,3.75a62.79,62.79,0,0,1-12.67,20.59c-12.45,13.77-28.64,18.18-39.54,20-26.88,4.63-52.42-10-51-15.3,1.76-6.51,4.63-12.44,2.75-30.73-2.43-23-14-31.38-8.92-44.71,4.08-10.58,15.77-23.37,31.94-36.23,21.06-16.76,71.85-54,109.66-76.53,41-24.44,81.91-26.08,124.8,23.64a106.3,106.3,0,0,1,20.81,36.23,10,10,0,0,1-5.72,12.33" transform="translate(-1 -2.5)"/><path class="cls-8" d="M516.68,477.67c-20.34,60.57-66.94,96.19-133,115.44-91.52,26.69-172.63-7.79-211-87.6,0,0,79.31-27.88,140.5-130.21,36-60.26,106.25-67.22,147.17-44.73,45.8,25.18,79.93,76.83,56.33,147.1" transform="translate(-1 -2.5)"/><rect class="cls-9" width="798" height="795"/></svg>