<svg xmlns="http://www.w3.org/2000/svg" xmlns:xlink="http://www.w3.org/1999/xlink" width="1920" zoomAndPan="magnify" viewBox="0 0 1440 809.999993" height="1080" preserveAspectRatio="xMidYMid meet" version="1.0"><defs><clipPath id="fc4a5a5177"><path d="M 0 256.5 L 689.625 256.5 L 689.625 810 L 0 810 Z M 0 256.5 " clip-rule="nonzero"/></clipPath></defs><rect x="-144" width="1728" fill="#ffffff" y="-80.999999" height="971.999992" fill-opacity="1"/><rect x="-144" width="1728" fill="#10151f" y="-80.999999" height="971.999992" fill-opacity="1"/><g clip-path="url(#fc4a5a5177)"><path fill="#fba94b" d="M 689.625 690.75 C 689.625 697.855469 689.449219 704.960938 689.101562 712.058594 C 688.753906 719.15625 688.230469 726.242188 687.535156 733.3125 C 686.835938 740.386719 685.96875 747.4375 684.925781 754.46875 C 683.882812 761.496094 682.667969 768.496094 681.28125 775.46875 C 679.894531 782.4375 678.335938 789.371094 676.609375 796.265625 C 674.882812 803.15625 672.988281 810.003906 670.925781 816.804688 C 668.863281 823.605469 666.632812 830.351562 664.242188 837.042969 C 661.847656 843.734375 659.289062 850.363281 656.570312 856.929688 C 653.851562 863.496094 650.96875 869.992188 647.933594 876.414062 C 644.894531 882.839844 641.699219 889.1875 638.347656 895.453125 C 635 901.722656 631.496094 907.902344 627.84375 914 C 624.191406 920.09375 620.390625 926.097656 616.441406 932.007812 C 612.492188 937.914062 608.402344 943.722656 604.167969 949.433594 C 599.933594 955.140625 595.5625 960.742188 591.054688 966.234375 C 586.546875 971.730469 581.90625 977.109375 577.132812 982.375 C 572.359375 987.640625 567.460938 992.785156 562.4375 997.8125 C 557.410156 1002.835938 552.265625 1007.734375 547 1012.507812 C 541.734375 1017.28125 536.355469 1021.921875 530.859375 1026.429688 C 525.367188 1030.9375 519.765625 1035.308594 514.058594 1039.542969 C 508.347656 1043.777344 502.539062 1047.867188 496.632812 1051.816406 C 490.722656 1055.765625 484.71875 1059.566406 478.625 1063.21875 C 472.527344 1066.871094 466.347656 1070.375 460.078125 1073.722656 C 453.8125 1077.074219 447.464844 1080.269531 441.039062 1083.308594 C 434.617188 1086.347656 428.121094 1089.226562 421.554688 1091.945312 C 414.988281 1094.664062 408.359375 1097.222656 401.667969 1099.617188 C 394.976562 1102.007812 388.230469 1104.238281 381.429688 1106.300781 C 374.628906 1108.363281 367.78125 1110.257812 360.890625 1111.984375 C 353.996094 1113.710938 347.0625 1115.269531 340.09375 1116.65625 C 333.121094 1118.042969 326.121094 1119.257812 319.09375 1120.300781 C 312.0625 1121.34375 305.011719 1122.210938 297.9375 1122.910156 C 290.867188 1123.605469 283.78125 1124.128906 276.683594 1124.476562 C 269.585938 1124.824219 262.480469 1125 255.375 1125 C 248.269531 1125 241.164062 1124.824219 234.066406 1124.476562 C 226.96875 1124.128906 219.882812 1123.605469 212.8125 1122.910156 C 205.738281 1122.210938 198.6875 1121.34375 191.65625 1120.300781 C 184.628906 1119.257812 177.628906 1118.042969 170.65625 1116.65625 C 163.6875 1115.269531 156.753906 1113.710938 149.859375 1111.984375 C 142.96875 1110.257812 136.121094 1108.363281 129.320312 1106.300781 C 122.519531 1104.238281 115.773438 1102.007812 109.082031 1099.617188 C 102.390625 1097.222656 95.761719 1094.664062 89.195312 1091.945312 C 82.628906 1089.226562 76.132812 1086.347656 69.710938 1083.308594 C 63.285156 1080.269531 56.9375 1077.074219 50.671875 1073.722656 C 44.402344 1070.375 38.222656 1066.871094 32.125 1063.21875 C 26.03125 1059.566406 20.027344 1055.765625 14.117188 1051.816406 C 8.210938 1047.867188 2.402344 1043.777344 -3.308594 1039.542969 C -9.015625 1035.308594 -14.617188 1030.9375 -20.109375 1026.429688 C -25.605469 1021.921875 -30.984375 1017.28125 -36.25 1012.507812 C -41.515625 1007.734375 -46.660156 1002.835938 -51.6875 997.8125 C -56.710938 992.785156 -61.609375 987.640625 -66.382812 982.375 C -71.15625 977.109375 -75.796875 971.730469 -80.304688 966.234375 C -84.8125 960.742188 -89.183594 955.140625 -93.417969 949.433594 C -97.652344 943.722656 -101.742188 937.914062 -105.691406 932.007812 C -109.640625 926.097656 -113.441406 920.09375 -117.09375 914 C -120.746094 907.902344 -124.25 901.722656 -127.597656 895.453125 C -130.949219 889.1875 -134.144531 882.839844 -137.183594 876.414062 C -140.222656 869.992188 -143.101562 863.496094 -145.820312 856.929688 C -148.539062 850.363281 -151.097656 843.734375 -153.492188 837.042969 C -155.882812 830.351562 -158.113281 823.605469 -160.175781 816.804688 C -162.238281 810.003906 -164.132812 803.15625 -165.859375 796.265625 C -167.589844 789.371094 -169.144531 782.4375 -170.53125 775.46875 C -171.917969 768.496094 -173.132812 761.496094 -174.175781 754.46875 C -175.21875 747.4375 -176.085938 740.386719 -176.785156 733.3125 C -177.480469 726.242188 -178.003906 719.15625 -178.351562 712.058594 C -178.699219 704.960938 -178.875 697.855469 -178.875 690.75 C -178.875 683.644531 -178.699219 676.539062 -178.351562 669.441406 C -178.003906 662.34375 -177.480469 655.257812 -176.785156 648.1875 C -176.085938 641.113281 -175.21875 634.0625 -174.175781 627.03125 C -173.132812 620.003906 -171.917969 613.003906 -170.53125 606.03125 C -169.144531 599.0625 -167.589844 592.128906 -165.859375 585.234375 C -164.132812 578.34375 -162.238281 571.496094 -160.175781 564.695312 C -158.113281 557.894531 -155.882812 551.148438 -153.492188 544.457031 C -151.097656 537.765625 -148.539062 531.136719 -145.820312 524.570312 C -143.101562 518.003906 -140.222656 511.507812 -137.183594 505.085938 C -134.144531 498.660156 -130.949219 492.3125 -127.597656 486.046875 C -124.25 479.777344 -120.746094 473.597656 -117.09375 467.5 C -113.441406 461.40625 -109.640625 455.402344 -105.691406 449.492188 C -101.742188 443.585938 -97.652344 437.777344 -93.417969 432.066406 C -89.183594 426.359375 -84.8125 420.757812 -80.304688 415.265625 C -75.796875 409.769531 -71.15625 404.390625 -66.382812 399.125 C -61.609375 393.859375 -56.710938 388.714844 -51.6875 383.6875 C -46.660156 378.664062 -41.515625 373.765625 -36.25 368.992188 C -30.984375 364.21875 -25.605469 359.578125 -20.109375 355.070312 C -14.617188 350.5625 -9.015625 346.191406 -3.308594 341.957031 C 2.402344 337.722656 8.210938 333.632812 14.117188 329.683594 C 20.027344 325.734375 26.03125 321.933594 32.125 318.28125 C 38.222656 314.628906 44.402344 311.125 50.671875 307.777344 C 56.9375 304.425781 63.285156 301.230469 69.710938 298.191406 C 76.132812 295.152344 82.628906 292.273438 89.195312 289.554688 C 95.761719 286.835938 102.390625 284.277344 109.082031 281.882812 C 115.773438 279.492188 122.519531 277.261719 129.320312 275.199219 C 136.121094 273.136719 142.96875 271.242188 149.859375 269.515625 C 156.753906 267.789062 163.6875 266.230469 170.65625 264.84375 C 177.628906 263.457031 184.628906 262.242188 191.65625 261.199219 C 198.6875 260.15625 205.738281 259.289062 212.8125 258.589844 C 219.882812 257.894531 226.96875 257.371094 234.066406 257.023438 C 241.164062 256.675781 248.269531 256.5 255.375 256.5 C 262.480469 256.5 269.585938 256.675781 276.683594 257.023438 C 283.78125 257.371094 290.867188 257.894531 297.9375 258.589844 C 305.011719 259.289062 312.0625 260.15625 319.09375 261.199219 C 326.121094 262.242188 333.121094 263.457031 340.09375 264.84375 C 347.0625 266.230469 353.996094 267.789062 360.890625 269.515625 C 367.78125 271.242188 374.628906 273.136719 381.429688 275.199219 C 388.230469 277.261719 394.976562 279.492188 401.667969 281.882812 C 408.359375 284.277344 414.988281 286.835938 421.554688 289.554688 C 428.121094 292.273438 434.617188 295.152344 441.039062 298.191406 C 447.464844 301.230469 453.8125 304.425781 460.078125 307.777344 C 466.347656 311.125 472.527344 314.628906 478.625 318.28125 C 484.71875 321.933594 490.722656 325.734375 496.632812 329.683594 C 502.539062 333.632812 508.347656 337.722656 514.058594 341.957031 C 519.765625 346.191406 525.367188 350.5625 530.859375 355.070312 C 536.355469 359.578125 541.734375 364.21875 547 368.992188 C 552.265625 373.765625 557.410156 378.664062 562.4375 383.6875 C 567.460938 388.714844 572.359375 393.859375 577.132812 399.125 C 581.90625 404.390625 586.546875 409.769531 591.054688 415.265625 C 595.5625 420.757812 599.933594 426.359375 604.167969 432.066406 C 608.402344 437.777344 612.492188 443.585938 616.441406 449.492188 C 620.390625 455.402344 624.191406 461.40625 627.84375 467.5 C 631.496094 473.597656 635 479.777344 638.347656 486.046875 C 641.699219 492.3125 644.894531 498.660156 647.933594 505.085938 C 650.96875 511.507812 653.851562 518.003906 656.570312 524.570312 C 659.289062 531.136719 661.847656 537.765625 664.242188 544.457031 C 666.632812 551.148438 668.863281 557.894531 670.925781 564.695312 C 672.988281 571.496094 674.882812 578.34375 676.609375 585.234375 C 678.335938 592.128906 679.894531 599.0625 681.28125 606.03125 C 682.667969 613.003906 683.882812 620.003906 684.925781 627.03125 C 685.96875 634.0625 686.835938 641.113281 687.535156 648.1875 C 688.230469 655.257812 688.753906 662.34375 689.101562 669.441406 C 689.449219 676.539062 689.625 683.644531 689.625 690.75 Z M 689.625 690.75 " fill-opacity="1" fill-rule="nonzero"/></g></svg>