<svg xmlns="http://www.w3.org/2000/svg" xmlns:xlink="http://www.w3.org/1999/xlink" width="1920" zoomAndPan="magnify" viewBox="0 0 1440 809.999993" height="1080" preserveAspectRatio="xMidYMid meet" version="1.0"><defs><clipPath id="483856fbdc"><path d="M 792 237.375 L 1440 237.375 L 1440 810 L 792 810 Z M 792 237.375 " clip-rule="nonzero"/></clipPath></defs><rect x="-144" width="1728" fill="#ffffff" y="-80.999999" height="971.999992" fill-opacity="1"/><rect x="-144" width="1728" fill="#ffffff" y="-80.999999" height="971.999992" fill-opacity="1"/><rect x="-144" width="1728" fill="#10151f" y="-80.999999" height="971.999992" fill-opacity="1"/><g clip-path="url(#483856fbdc)"><path fill="#fba94b" d="M 1660.5 671.625 C 1660.5 678.730469 1660.324219 685.835938 1659.976562 692.933594 C 1659.628906 700.03125 1659.105469 707.117188 1658.410156 714.1875 C 1657.710938 721.261719 1656.84375 728.3125 1655.800781 735.34375 C 1654.757812 742.371094 1653.542969 749.371094 1652.15625 756.34375 C 1650.769531 763.3125 1649.210938 770.246094 1647.484375 777.140625 C 1645.757812 784.03125 1643.863281 790.878906 1641.800781 797.679688 C 1639.738281 804.480469 1637.507812 811.226562 1635.117188 817.917969 C 1632.722656 824.609375 1630.164062 831.238281 1627.445312 837.804688 C 1624.726562 844.371094 1621.84375 850.867188 1618.808594 857.289062 C 1615.769531 863.714844 1612.574219 870.0625 1609.222656 876.328125 C 1605.875 882.597656 1602.371094 888.777344 1598.71875 894.875 C 1595.066406 900.96875 1591.265625 906.972656 1587.316406 912.882812 C 1583.367188 918.789062 1579.277344 924.597656 1575.042969 930.308594 C 1570.808594 936.015625 1566.4375 941.617188 1561.929688 947.109375 C 1557.421875 952.605469 1552.78125 957.984375 1548.007812 963.25 C 1543.234375 968.515625 1538.335938 973.660156 1533.3125 978.6875 C 1528.285156 983.710938 1523.140625 988.609375 1517.875 993.382812 C 1512.609375 998.15625 1507.230469 1002.796875 1501.734375 1007.304688 C 1496.242188 1011.8125 1490.640625 1016.183594 1484.933594 1020.417969 C 1479.222656 1024.652344 1473.414062 1028.742188 1467.507812 1032.691406 C 1461.597656 1036.640625 1455.59375 1040.441406 1449.5 1044.09375 C 1443.402344 1047.746094 1437.222656 1051.25 1430.953125 1054.597656 C 1424.6875 1057.949219 1418.339844 1061.144531 1411.914062 1064.183594 C 1405.492188 1067.222656 1398.996094 1070.101562 1392.429688 1072.820312 C 1385.863281 1075.539062 1379.234375 1078.097656 1372.542969 1080.492188 C 1365.851562 1082.882812 1359.105469 1085.113281 1352.304688 1087.175781 C 1345.503906 1089.238281 1338.65625 1091.132812 1331.765625 1092.859375 C 1324.871094 1094.585938 1317.9375 1096.144531 1310.96875 1097.53125 C 1303.996094 1098.917969 1296.996094 1100.132812 1289.96875 1101.175781 C 1282.9375 1102.21875 1275.886719 1103.085938 1268.8125 1103.785156 C 1261.742188 1104.480469 1254.65625 1105.003906 1247.558594 1105.351562 C 1240.460938 1105.699219 1233.355469 1105.875 1226.25 1105.875 C 1219.144531 1105.875 1212.039062 1105.699219 1204.941406 1105.351562 C 1197.84375 1105.003906 1190.757812 1104.480469 1183.6875 1103.785156 C 1176.613281 1103.085938 1169.5625 1102.21875 1162.53125 1101.175781 C 1155.503906 1100.132812 1148.503906 1098.917969 1141.53125 1097.53125 C 1134.5625 1096.144531 1127.628906 1094.585938 1120.734375 1092.859375 C 1113.84375 1091.132812 1106.996094 1089.238281 1100.195312 1087.175781 C 1093.394531 1085.113281 1086.648438 1082.882812 1079.957031 1080.492188 C 1073.265625 1078.097656 1066.636719 1075.539062 1060.070312 1072.820312 C 1053.503906 1070.101562 1047.007812 1067.222656 1040.585938 1064.183594 C 1034.160156 1061.144531 1027.8125 1057.949219 1021.546875 1054.597656 C 1015.277344 1051.25 1009.097656 1047.746094 1003 1044.09375 C 996.90625 1040.441406 990.902344 1036.640625 984.992188 1032.691406 C 979.085938 1028.742188 973.277344 1024.652344 967.566406 1020.417969 C 961.859375 1016.183594 956.257812 1011.8125 950.765625 1007.304688 C 945.269531 1002.796875 939.890625 998.15625 934.625 993.382812 C 929.359375 988.609375 924.214844 983.710938 919.1875 978.6875 C 914.164062 973.660156 909.265625 968.515625 904.492188 963.25 C 899.71875 957.984375 895.078125 952.605469 890.570312 947.109375 C 886.0625 941.617188 881.691406 936.015625 877.457031 930.308594 C 873.222656 924.597656 869.132812 918.789062 865.183594 912.882812 C 861.234375 906.972656 857.433594 900.96875 853.78125 894.875 C 850.128906 888.777344 846.625 882.597656 843.277344 876.328125 C 839.925781 870.0625 836.730469 863.714844 833.691406 857.289062 C 830.652344 850.867188 827.773438 844.371094 825.054688 837.804688 C 822.335938 831.238281 819.777344 824.609375 817.382812 817.917969 C 814.988281 811.226562 812.761719 804.480469 810.699219 797.679688 C 808.636719 790.878906 806.742188 784.03125 805.015625 777.140625 C 803.285156 770.246094 801.730469 763.3125 800.34375 756.34375 C 798.957031 749.371094 797.742188 742.371094 796.699219 735.34375 C 795.65625 728.3125 794.789062 721.261719 794.089844 714.1875 C 793.394531 707.117188 792.871094 700.03125 792.523438 692.933594 C 792.175781 685.835938 792 678.730469 792 671.625 C 792 664.519531 792.175781 657.414062 792.523438 650.316406 C 792.871094 643.21875 793.394531 636.132812 794.089844 629.0625 C 794.789062 621.988281 795.65625 614.9375 796.699219 607.90625 C 797.742188 600.878906 798.957031 593.878906 800.34375 586.90625 C 801.730469 579.9375 803.285156 573.003906 805.015625 566.109375 C 806.742188 559.21875 808.636719 552.371094 810.699219 545.570312 C 812.761719 538.769531 814.988281 532.023438 817.382812 525.332031 C 819.777344 518.640625 822.335938 512.011719 825.054688 505.445312 C 827.773438 498.878906 830.652344 492.382812 833.691406 485.960938 C 836.730469 479.535156 839.925781 473.1875 843.277344 466.921875 C 846.625 460.652344 850.128906 454.472656 853.78125 448.375 C 857.433594 442.28125 861.234375 436.277344 865.183594 430.367188 C 869.132812 424.460938 873.222656 418.652344 877.457031 412.941406 C 881.691406 407.234375 886.0625 401.632812 890.570312 396.140625 C 895.078125 390.644531 899.71875 385.265625 904.492188 380 C 909.265625 374.734375 914.164062 369.589844 919.1875 364.5625 C 924.214844 359.539062 929.359375 354.640625 934.625 349.867188 C 939.890625 345.09375 945.269531 340.453125 950.765625 335.945312 C 956.257812 331.4375 961.859375 327.066406 967.566406 322.832031 C 973.277344 318.597656 979.085938 314.507812 984.992188 310.558594 C 990.902344 306.609375 996.90625 302.808594 1003 299.15625 C 1009.097656 295.503906 1015.277344 292 1021.546875 288.652344 C 1027.8125 285.300781 1034.160156 282.105469 1040.585938 279.066406 C 1047.007812 276.027344 1053.503906 273.148438 1060.070312 270.429688 C 1066.636719 267.710938 1073.265625 265.152344 1079.957031 262.757812 C 1086.648438 260.367188 1093.394531 258.136719 1100.195312 256.074219 C 1106.996094 254.011719 1113.84375 252.117188 1120.734375 250.390625 C 1127.628906 248.664062 1134.5625 247.105469 1141.53125 245.71875 C 1148.503906 244.332031 1155.503906 243.117188 1162.53125 242.074219 C 1169.5625 241.03125 1176.613281 240.164062 1183.6875 239.464844 C 1190.757812 238.769531 1197.84375 238.246094 1204.941406 237.898438 C 1212.039062 237.550781 1219.144531 237.375 1226.25 237.375 C 1233.355469 237.375 1240.460938 237.550781 1247.558594 237.898438 C 1254.65625 238.246094 1261.742188 238.769531 1268.8125 239.464844 C 1275.886719 240.164062 1282.9375 241.03125 1289.96875 242.074219 C 1296.996094 243.117188 1303.996094 244.332031 1310.96875 245.71875 C 1317.9375 247.105469 1324.871094 248.664062 1331.765625 250.390625 C 1338.65625 252.117188 1345.503906 254.011719 1352.304688 256.074219 C 1359.105469 258.136719 1365.851562 260.367188 1372.542969 262.757812 C 1379.234375 265.152344 1385.863281 267.710938 1392.429688 270.429688 C 1398.996094 273.148438 1405.492188 276.027344 1411.914062 279.066406 C 1418.339844 282.105469 1424.6875 285.300781 1430.953125 288.652344 C 1437.222656 292 1443.402344 295.503906 1449.5 299.15625 C 1455.59375 302.808594 1461.597656 306.609375 1467.507812 310.558594 C 1473.414062 314.507812 1479.222656 318.597656 1484.933594 322.832031 C 1490.640625 327.066406 1496.242188 331.4375 1501.734375 335.945312 C 1507.230469 340.453125 1512.609375 345.09375 1517.875 349.867188 C 1523.140625 354.640625 1528.285156 359.539062 1533.3125 364.5625 C 1538.335938 369.589844 1543.234375 374.734375 1548.007812 380 C 1552.78125 385.265625 1557.421875 390.644531 1561.929688 396.140625 C 1566.4375 401.632812 1570.808594 407.234375 1575.042969 412.941406 C 1579.277344 418.652344 1583.367188 424.460938 1587.316406 430.367188 C 1591.265625 436.277344 1595.066406 442.28125 1598.71875 448.375 C 1602.371094 454.472656 1605.875 460.652344 1609.222656 466.921875 C 1612.574219 473.1875 1615.769531 479.535156 1618.808594 485.960938 C 1621.84375 492.382812 1624.726562 498.878906 1627.445312 505.445312 C 1630.164062 512.011719 1632.722656 518.640625 1635.117188 525.332031 C 1637.507812 532.023438 1639.738281 538.769531 1641.800781 545.570312 C 1643.863281 552.371094 1645.757812 559.21875 1647.484375 566.109375 C 1649.210938 573.003906 1650.769531 579.9375 1652.15625 586.90625 C 1653.542969 593.878906 1654.757812 600.878906 1655.800781 607.90625 C 1656.84375 614.9375 1657.710938 621.988281 1658.410156 629.0625 C 1659.105469 636.132812 1659.628906 643.21875 1659.976562 650.316406 C 1660.324219 657.414062 1660.5 664.519531 1660.5 671.625 Z M 1660.5 671.625 " fill-opacity="1" fill-rule="nonzero"/></g></svg>