<svg xmlns="http://www.w3.org/2000/svg" xmlns:xlink="http://www.w3.org/1999/xlink" width="150" zoomAndPan="magnify" viewBox="0 0 112.5 37.5" height="50" preserveAspectRatio="xMidYMid meet" version="1.0"><defs><g/><clipPath id="c186e713b7"><path d="M 0.492188 1 L 35.621094 1 L 35.621094 36 L 0.492188 36 Z M 0.492188 1 " clip-rule="nonzero"/></clipPath></defs><g fill="#ffffff" fill-opacity="1"><g transform="translate(36.912515, 23.221329)"><g><path d="M 8.910156 -12.597656 L 8.910156 -7.738281 L 4.15625 -7.738281 L 4.15625 -12.597656 L 1.441406 -12.597656 L 1.441406 0 L 4.15625 0 L 4.15625 -5.203125 L 8.910156 -5.203125 L 8.910156 0 L 11.625 0 L 11.625 -12.597656 Z M 8.910156 -12.597656 "/></g></g></g><g fill="#ffffff" fill-opacity="1"><g transform="translate(49.993474, 23.221329)"><g><path d="M 10.691406 -4.878906 C 10.691406 -7.683594 8.640625 -9.988281 5.652344 -9.988281 C 2.773438 -9.988281 0.613281 -7.773438 0.613281 -4.859375 C 0.613281 -1.945312 2.789062 0.289062 5.652344 0.289062 C 7.917969 0.289062 9.773438 -1.0625 10.476562 -3.1875 L 7.722656 -3.1875 C 7.324219 -2.484375 6.570312 -2.050781 5.652344 -2.050781 C 4.375 -2.050781 3.507812 -2.789062 3.277344 -4.121094 L 10.636719 -4.121094 C 10.671875 -4.375 10.691406 -4.625 10.691406 -4.878906 Z M 5.652344 -7.738281 C 6.839844 -7.738281 7.683594 -7.089844 8.0625 -5.902344 L 3.347656 -5.902344 C 3.652344 -7.054688 4.480469 -7.738281 5.652344 -7.738281 Z M 5.652344 -7.738281 "/></g></g></g><g fill="#ffffff" fill-opacity="1"><g transform="translate(61.293119, 23.221329)"><g><path d="M 7.972656 -9.71875 L 5.542969 -3.726562 L 2.953125 -9.71875 L 0.0898438 -9.71875 L 4.210938 -0.738281 L 4.175781 -0.664062 C 3.582031 0.808594 3.257812 1.152344 1.980469 1.152344 L 1.078125 1.152344 L 1.078125 3.507812 L 2.160156 3.507812 C 4.335938 3.507812 5.363281 2.519531 6.535156 -0.125 L 10.761719 -9.71875 Z M 7.972656 -9.71875 "/></g></g></g><g fill="#ffffff" fill-opacity="1"><g transform="translate(72.124939, 23.221329)"><g><path d="M 10.113281 -12.597656 L 0.378906 -12.597656 L 0.378906 -10.0625 L 3.886719 -10.0625 L 3.886719 0 L 6.605469 0 L 6.605469 -10.0625 L 10.113281 -10.0625 Z M 10.113281 -12.597656 "/></g></g></g><g fill="#ffffff" fill-opacity="1"><g transform="translate(82.632884, 23.221329)"><g><path d="M 9.179688 -9.71875 L 8.910156 -8.800781 C 8.0625 -9.539062 6.964844 -9.988281 5.707031 -9.988281 C 2.789062 -9.988281 0.613281 -7.792969 0.613281 -4.859375 C 0.613281 -1.925781 2.789062 0.289062 5.707031 0.289062 C 6.949219 0.289062 8.027344 -0.144531 8.855469 -0.882812 L 9.089844 0 L 11.140625 0 L 11.140625 -9.71875 Z M 5.921875 -2.195312 C 4.390625 -2.195312 3.277344 -3.347656 3.277344 -4.859375 C 3.277344 -6.390625 4.390625 -7.523438 5.921875 -7.523438 C 7.453125 -7.523438 8.566406 -6.390625 8.566406 -4.859375 C 8.566406 -3.328125 7.453125 -2.195312 5.921875 -2.195312 Z M 5.921875 -2.195312 "/></g></g></g><g fill="#ffffff" fill-opacity="1"><g transform="translate(95.048104, 23.221329)"><g><path d="M 1.261719 0 L 3.886719 0 L 3.886719 -13.210938 L 1.261719 -13.210938 Z M 1.261719 0 "/></g></g></g><g fill="#ffffff" fill-opacity="1"><g transform="translate(100.194118, 23.221329)"><g><path d="M 10.167969 0 L 6.535156 -5.074219 L 9.828125 -9.71875 L 6.804688 -9.71875 L 3.886719 -5.398438 L 3.886719 -13.210938 L 1.261719 -13.210938 L 1.261719 0 L 3.886719 0 L 3.886719 -4.644531 L 6.984375 0 Z M 10.167969 0 "/></g></g></g><g clip-path="url(#c186e713b7)"><path fill="#2d8cff" d="M 18.144531 1.015625 C 8.492188 1.015625 0.667969 8.1875 0.667969 17.039062 C 0.667969 20.507812 1.886719 23.714844 3.933594 26.339844 L 0.777344 33.957031 C 0.472656 34.703125 0.824219 35.550781 1.566406 35.859375 C 1.941406 36.015625 2.339844 36.003906 2.683594 35.859375 L 11.976562 32.011719 C 13.894531 32.675781 15.96875 33.058594 18.144531 33.058594 C 27.800781 33.058594 35.621094 25.882812 35.621094 17.039062 C 35.621094 8.1875 27.800781 1.015625 18.144531 1.015625 Z M 10.863281 19.222656 C 9.65625 19.222656 8.679688 18.246094 8.679688 17.039062 C 8.679688 15.828125 9.65625 14.851562 10.863281 14.851562 C 12.070312 14.851562 13.046875 15.828125 13.046875 17.039062 C 13.046875 18.246094 12.070312 19.222656 10.863281 19.222656 Z M 18.144531 19.222656 C 16.9375 19.222656 15.960938 18.246094 15.960938 17.039062 C 15.960938 15.828125 16.9375 14.851562 18.144531 14.851562 C 19.351562 14.851562 20.328125 15.828125 20.328125 17.039062 C 20.328125 18.246094 19.351562 19.222656 18.144531 19.222656 Z M 25.425781 19.222656 C 24.21875 19.222656 23.242188 18.246094 23.242188 17.039062 C 23.242188 15.828125 24.21875 14.851562 25.425781 14.851562 C 26.632812 14.851562 27.613281 15.828125 27.613281 17.039062 C 27.613281 18.246094 26.632812 19.222656 25.425781 19.222656 Z M 25.425781 19.222656 " fill-opacity="1" fill-rule="nonzero"/></g></svg>